<svg xmlns="http://www.w3.org/2000/svg" viewBox="0 0 1052.3 442.82"><defs><style>.cls-1,.cls-5{stroke:#000;}.cls-1,.cls-2,.cls-3,.cls-4,.cls-5,.cls-6,.cls-7{stroke-miterlimit:10;}.cls-1{stroke-width:7px;}.cls-2{fill:#cee7ce;}.cls-2,.cls-3,.cls-4,.cls-6,.cls-7{stroke:#c9c9c9;}.cls-2,.cls-3,.cls-4,.cls-5,.cls-6,.cls-7{stroke-width:2.5px;}.cls-3{fill:#9cd09a;}.cls-4{fill:#4caf4a;}.cls-6{fill:#984ea3;}.cls-7{fill:#e1cee5;}</style></defs><title>AKHI</title><g id="Layer_2" data-name="Layer 2"><g id="Layer_0_Image" data-name="Layer 0 Image"><path id="North_Slope" data-name="North Slope" class="cls-1" d="M330.44,14.82,334.71,12l3-1.24.53,1.95-1.95.54,1.78.35,9.43-.89,10-8.2,6.41,5-.36,1.78-3.2,2.13-.53,2.68,2.85-.36,2.67-4.09,2.13-1.43,2.14,3.2.18,3.74,2.49,1.43,1.24-1.61h4.63l7.12,1.42.71,1.08-2.31,2.31-.18.89,5.17,2-1.43,2.48,3.56.72,5-1.78,10,1.06,5.88,3,2.68.54,2.48,1.42.72,1.06,3.56.71h4.63L431,34.89l5.87,3,2-.54,4.09-2L444,34.7l2.13-1.41,6.06,2.12,13.35,7.29,1.61,15.14.89,9.43-38.27,1.62L429.62,79l-7.47.36-19.41-.16-.9-.18-42.71-3.9-9.8-2,.36-1.78L342.57,70l.36-1.79L335.8,66.8l-7.29-.53-5.35-1.06.35-1.77-2.66-.54-.18.89-8-1.6L311.06,61l-.9-.18-.17.88-3.56-.71L305.89,59l-4.45-.89-.35,1.78-1.79-.36L287,56.15l-.71,3.55-6.23-1.24-4.8-3.73-2-4.1,2.84-5,2.13-6.06,6.06,2.14,8.19.7,2.84-.35L302,36.91l4.27-7.47,6.94-7,4.27-2.85,2.49,1.43L323.85,20l6.59-5.17"/><path id="Northwest_Arctic" data-name="Northwest Arctic" class="cls-1" d="M362,102.57l-1.77-.35-3.91,1.06.53,2-5.33-1.06-1.07,5.34-3.74.18.35-1.78-1.42-2.13-3.56-.71-.71,3.55-3.56-.71.71-3.55L331.37,103l-1.6,8-8.9-1.78-.71,3.56-5.34-1.06-1.77,8.9-1.78-.36-.36,1.79-1.78-.36-31-7.11.71-3.56-.9-.18-.71-1.06.54-2.67-1.61-1.25,1.42-7.12.88-9.08,3.57.71,1.6,1.24-3,5.88.18,3.74,15.67,5,5.34-3.56,2.67.54-.54-2-2.31-2.3-2.31-2.31-2.69-5.18-1.59-1.23-.36-2.85,1.07-.72,1.77.36L299,93.7,301.82,98l2-.52-1.61-1.25-1.95-4.1,2.84-5,.71,1.06.18-.89L301.64,85H297l-3.57-.71-5.7-3.91L287,70l-7-11.58,6.23,1.24.71-3.55,12.29,3.37,1.79.36.35-1.78,4.45.89.54,1.95,3.56.71.17-.88.9.18,1.6,1.24,8,1.59.18-.88,2.66.54-.35,1.77,5.35,1.06,7.29.53,7.13,1.42L342.57,70l7.12,1.42-.36,1.78,7.13,1.42-.89,4.45,1.78.35L357,81.21l2.85,4.28-1.07,5.33,3.56.71,1.42,2.14-.17,5.52L362,102.57"/><path id="Ketchikan_Gateway" data-name="Ketchikan Gateway" class="cls-1" d="M598.33,314.47l4.44-3.73,5.89,7.65.71,5.69-1.43,2.5-3.73.18-5.88-3,.36-1.78,1.24-1.6-1.6-5.88m.89,9.44,2.32,2.31.18,3.74-2.14-3.2-.36-2.85"/><path id="Prince_of_Wales-Outer_Ketchikan" data-name="Prince of Wales-Outer Ketchikan" class="cls-1" d="M592.81,318.93l2.49,1.42.71-3.56-.71-1.07.71-3.56,1.25-1.6,3-1.25,3.38-3,1.25-1.6-2.32-2.31,3.74-.18,4.81,3.74,2.67.53,1.24-1.6,2.32,2.31-1.06,5.34,4.62,9.25-1.42,7.12-3,5.88-2.85.36-1.59-1.25-3.21-7.12,1.6-3.38-2.32-6.94-5.35-5.69-4.44,3.73-2,.54,1.6,1.25-1.24,6.23-2.67-.53-2.14-3.21.89.18m-18.52-9.25,4.8-.9,11,9.62,4.1,7.29,3.2,2.49,2.86,8.9-.54,2.68-2.85.35-4.45-5.52L585,330.33l3.21,7.12,2.14-1.43,1.6,1.25.89,4.8-2.67-.53-9.26-9.26-.53-1.95,4.27-2.85-2.14-3.2-2.67-.54-4.1-2.67,1.06-.71,1.78.36,1.08-.72-2-4.09-1.41,2.5-2,.53-.72-1.07,1.43-2.49-.89-4.81.17-.89m-.88,9.08-.36,1.78-.71-1.07,1.07-.71m29.2,11.38-.18-3.74,3.38,1.6.36,2.85-3,1.25-.53-2m-26-4.26,3.92-1.07,1.6,1.25-2.67,4.09-3.39-1.6.54-2.67M608,331.21l.71,1.06-.35,1.78-2.67-.53,2.31-2.31"/><path id="Wrangell-Petersburg" class="cls-1" d="M595.3,315.72l.71,1.07-.71,3.56-2.49-1.42,1.43-2.49-.37-7.48-1.59,3.38.53,2-1.24,1.6-4.28-1.77L585,311.81l.36-1.78,2.49-3.2-.54-6.59-5-2.85L580,295.07l-.52-1.95h-4.64l-2.66-.53,1.24-1.6,2.67.53,1.6-3.39,2.32-2.31,3.73-.18,2.14,3.21-.53,2.67,3.74-.18.18,3.73,2.49,1.43,2.14,3.2,2-.53,6.77,3.2,2.32,2.31-1.25,1.6-3.38,3-3,1.25-1.25,1.6-.71,3.56m-26.18-17.25-2.32-2.32,1.25-1.6,6.23,1.25,3-1.26,8.73,7.3-3.38,3-2.68-.53.35-1.79-3.9-3.55-.36,1.77,3.21,2.5.52,2-1.24,1.6-2.67-.53-.17.89-2,.53-1.6-5.87-.72-1.07-1.59-1.25-.72-1.06m-.88,9.07L564.32,304l-1.25-3,1.42-2.51,2-.53,2.32,2.32,2.66.53,1.07,3.92-2,.53-.35,1.78.36,2.85,1.78.35-1.07,5.35-1.42-2.14v4.63l-1.61-1.24-.88-4.81.53-2.67,1.78.35-1.42-2.14m13.16-1.06,3-1.25,1.08,3.91-2,.53-2.68-.53.53-2.66m-18.32,8.37-.53-2,.88.18-.53,2.67.18-.89m5.52,4.8,1.77.36-1.24,1.6-1.6-1.25,1.07-.71"/><path id="Sitka" class="cls-1" d="M546.5,281.92l4.09,2.67,3.93-1.07,1.77,5-.17.89-2.85.36-5.7-3.91-1.07.71,2,4.1L547,293.14l-1.78-.36-6.59-8.72,3.73-.17.71-3.57,3.39,1.6m16.58,32.93-.18.89-1.61-1.25-3.56-5.34.53-2.67-2.13,1.43-.54-2-2.49-1.43-.72-5.69L551,296.69l.36-1.78-2,.53-2.31-2.3,2.84-5,3.21,2.49,3.74-.18.53,2-2,.54,1.79.35,4.28,11,2,8.72-.88-.18.53,2m-17.11-21,1.07-.71,2.85,4.26-.54,2.68-2,.53L546,293.85"/><path id="Haines" class="cls-1" d="M548.44,258.24l-1.06.72-1.79-5-2.31-2.31-.18.89,3,8,2.49,6.05,3,8-3.56-.71-2.14-3.2-.71-1.07,2.13-1.42L546,266.08l-4.27-1.78,1.77-4.27-3-3.38-8-1.6,1.42-7.13,4.45-3.73,6.06,6.76,2.84-.36.72,1.07,3.56.71,1.42,2.14,1.07-.72,1.25,3,.89.17-7.66,1.25"/><path id="Juneau" class="cls-1" d="M568.57,278l-.35,1.79-1.78-.36-5.17-6.58-4.8.88-6.24-5.86-2.85-8.9,1.06-.72L556.1,257l1.42,2.14,2.5,1.42,8.19,5.34-.35,1.78,3.92,3.56-3,5.87-.18.89m-11.75-1.41-1.78-.36-.36-2.85.71,1.07,1.08-.72h4.62l-3,1.24-1.07.72-.18.89"/><path id="Skagway-Hoonah-Angoon" class="cls-1" d="M544.35,251l-6.06-6.76,2.32-2.32,3.38,1.6,2.31,2.31.89,4.81-2.84.36m.9,18.69.71,1.07-5,1.78-.72-5.69-2.14-3.21-.35,1.78-.89-.17-7.66-3.39-.17.9,3.56.71,5,2.84,2.5,6.05-6.41,4.28-3.21-2.49-1.78-.36-2.49-1.42L518,267l4.27-2.85,6.94-6.94,2.85-.36.35-1.78,8,1.6,3,3.38-1.77,4.27,4.27,1.78,1.42,2.14-2.13,1.42m30.81,21.88-2.67-.53-1.24,1.6V288l-3.56-5.33.36-1.78-.37-2.86.18-.89,3-5.87,11.93,14.41-3.73.18-2.32,2.31-1.6,3.39m-18-16.55,3-1.24-.17.88,5.7,8.55-1.78-.36-2-4.09-1.07.72,5,7.47.54,2L565,291.17l-.54,2.67-3.56,3.91-2-4.08,1.06-5.35-3.74-4.45-2.14-7.82-2.67-5.16.17-.9.9.18,2.13,3.2.36,2.85,1.78.36.18-.89,1.07-.72m-11.57,6.95-3.39-1.6-.71,3.57-3.73.17-2.5-1.42-.35-2.85,1.77-4.27,3.74-.18,2.14-1.42,9.43,3.73.54,2,.35,2.85-1.06.71-2,.54-4.27-1.78"/><path id="Yakutat" class="cls-1" d="M482.93,238.7l4.44.89,1.25-1.61,5.17,2,2.49-3.19L502,236l-.17,5.51,1.6,1.25,4.28,1.78,1.24,3,11.94,9.79,1.42,6.76L518,267l.36-1.77-2.32-2.32-18.69-8.36-.72-1.06.36-1.78,1.78.35.35-1.78-1.78-5-1.42,2.49-4.27,2.85-8.2-.71-4.8-3.73-11.75-1.42-13.35,2L460.33,236l12.27-1.26,1.78.36-.36,1.78,6.59-.54,1.78.36.54,2"/><path id="Aleutians_West" data-name="Aleutians West" class="cls-1" d="M165,259.51l-2.13,1.43-.71-1.08.17-.88,2.67.53m1.61,15.13.89.18-1.06.71L165,273.39l1.6,1.25m18.89,63,2.86,4.27-1.25,1.61-8.19,3.92-2.85.36-2.66-.54-7.66,1.25-2.31-2.31,10.5-1.61,2.31-6.94,1.07-.71,5.51.17-.35,1.78.71,1.07,1.07-.71,1.24-1.61m-34,8,6-2.49,1.23-1.61,2-.53,2.85-.36,2.5,1.42-2.5,3.21-3.73.18-5.34,3.56-5.87,1.61-2.85.36,5.34-3.57.36-1.78M23.32,320.1l.72,1.07-1.08.71-.71-1.07,1.07-.71m8.73,2.67,1.78.35L34.9,327l-3,1.25L30.27,327v-4.63l1.78.36m107.72,21.49-.35,1.77L138.7,345l1.07-.71m-4.81.89.88.17-1.06.72-.72-1.07.9.18m-55.73-8.34-.71-1.07,3.92-1.07,1.24,3-3.38,3L75,339.66l-9.44-3.74,8.73,2.67,4.8-.89,1.07-.71-.89-.18m-22.79-6.4,1.78.35-.36,1.79-1.06.71L55.19,332l.36-1.78.89.18m-13.36-2.66L44.69,329l-3.38,3-1.78-.35-2.32-2.32h4.63l1.24-1.6m95.26,19,.72,1.07-1.07.71-3.38-1.6,1.06-.72,2.67.54M50.39,332.9l2.49,1.43-1.24,1.6L42.56,335l5.69-5.33,2.67.53-.17.89-.9-.18-1.24,1.6,1.78.35m82.25,14.56.89.18-.18.89-.89-.18Zm-6.23-1.24.72,1.07-1.25,1.6-2.67-.53.36-1.78,2.84-.36M60.18,334.85l.71,1.08-.89-.18.18-.9m-6.41-.34,2.67.53.71,1.07-2.84.35-1.61-1.24,1.07-.71m-36.49-7.28-.18.89-1.08.71,1.26-1.6m100.58,20.06.72,1.07-1.07.71L116.8,348l1.06-.71m-15.13-3,.72,1.07-.18.89-3.57-.71,1.07-.71,2-.54m-16.38-1.41L88,344.1l5.87,3-7.12-1.43-3.38-1.6-2.14-3.2,2.5,1.42,2.66.54m-71-15.1L15,329.53l-.89-.17,1.24-1.6"/><path id="Aleutians_East" data-name="Aleutians East" class="cls-1" d="M273.62,322.83l-.35,1.78-.53-1.95.35-1.79-1.6-1.25-1.25,1.61-1.78-.36-1.25,1.6-5.16,2.68-8.54,1.07-3.39-1.6,2.67-4.1-2.66-.53-6.59,9.79-3.92,1.07-2.5-1.42L238,325l-1.59-1.25-1.25,1.6.54,2,.17,3.75-3.74.17-.89-4.81-2.85.36,1.07,3.92L228.41,336l-2.49-1.42-3.75.18-6.23-1.25-2,.54-3.2,2.14-4.45-.89-.36-2.84.36-1.79,2.85-.36,2.31-2.31,10.68-2.5,2.67.53v4.63l1.79.36,1.06-5.34,5.69-.72,9.8-7.3,6.23-3.39,5.69-.71,2.5,1.42,2.49,1.42-.89-.17-.35,1.78.53,2,2-.54,1.25-1.6.53-2.67,3.91-5.7,6.23-3.38,12.1-5,.71,1.08-.17.88-2.14,1.43-2.67-.54-.35,1.79-3.57-.71-.35,1.78-3.56-.71-.71,3.55.89.18L272,317l-1.25,1.6,3.56.72-.71,3.56m-9.07,3.74,1.77.35L266,328.7l-1.78-.35-.71-1.07,1.07-.71m-3.21,2.14,1.78.35-.35,1.78-2.32,2.32-3.37-1.6-.19-3.74,1.07-.71,1.78.35,1.6,1.25m7,2.31.18,3.73L263,339.21l1.07-5.34,1.06-.72,1.61,1.25,1.6-3.38m4.27,1.77-.89,4.46-1.77-.36,2.66-4.1m-25.46-2.3.72,1.07-1.78-.35-1.43-2.14,1.06-.71,1.43,2.13m26.53,6.22.54,2-2,.54.53-2.68.89.18m-34.18-5-.36,1.77-1.06.72-1.44-2.14,2.86-.35M274,339.56l.71,1.07-1.06.71.35-1.78m-43.63.55,2.51,1.42-.18.9L230,341.9l-.71-1.08,1.06-.71m-33.29-4.78.89.17-.35,1.78-2.14,1.43-.36-2.85,1.07-.71.89.18m-3.2,2.14-1.24,1.6-2.67-.54-.54-1.95,2.14-1.43,2.31,2.32m8.72,2.66.9.18-.18.89-3.56-.71,2.84-.36m-3.73.18.71,1.07L197.08,340l1.78.36"/><path id="Kodiak_Island" data-name="Kodiak Island" class="cls-1" d="M314.37,294.85l2.31-2.31,3-1.25,1.06-.71.72,1.06,1.06-.7,2.31-2.32,4.1-2,.53-7.3,3.92-1.07,4.81-.89,3-1.25.89-4.45,2.67.54,2.84-.37-.53-1.95,4.45.88L351.2,268l1.79.36-1.43,2.49-2.14,1.43-2,.54-2.31,2.31L343,281.13l-2.32,2.32-3,1.24-1.6-1.24-2.85.36-2.14,1.43-2.67,4.09-1.77-.35-3.38,3-2,.54-.71-1.07-.36,1.78-6,2.5-.18.88,2-.53-.71,3.57-4.44-.89.36-1.79,1.95-.53,1.24-1.61m41.47-8.38-1.07.71-4.09-2.67,4.62-4.63,4.82-5.52L363,274l-1.59,3.39-.35,1.78,3.74-.18,1.6,1.24.34,2.85-1.23,1.6-7.65,1.26-2.33-2.32-1.07.71,1.43,2.14M343,295l.36,2.85,1.6,1.24L343.56,297l.53-7.31,2.14-1.41,5.52.17,1.95-.54,2.69.53-1.44,2.5.73,1.06,4.25-2.85,2-.53L360.3,292l1.25,3,1.78.36-2.49,3.2-5.35,3.57L350,306.59l-1.06.71-.54-2,1.25-1.61-.89-.17-3.91,5.7-3.21,2.14-2.85.35-1.24-3-1.79-5-.36-2.86L334,298.76l1.77-4.28,3.2-2.13h4.63L343,295m-4.79,19.41,3.38,1.6-1.06.7L337,316l-.71-1.06,2-.53m-3.56-.71,1.61,1.24-5.17,2.68.35-1.78,3.21-2.14m-14.59,12.82,1.6,1.24-.71,3.57-3.38-1.6.35-1.79,2.14-1.42"/><path id="Bristol_Bay" data-name="Bristol Bay" class="cls-1" d="M314.36,262.45l7.12,1.42-1.06,5.35-10-1.06,2.32-2.32,1.6-3.39"/><path id="Dillingham" class="cls-1" d="M312.58,262.1l-.18.89-11.74,3.21L299.05,265l-2.49-6.06-1.07.72-1.6,3.38.89,4.8-3,1.25L290,268.7l-3.39-10.86L285,256.59l-1.42,2.5-.89-.18-3.74-4.44,1.07-.72-.71-1.07-8,3,.71-3.57,1.77.36,2.85-5,2.14-1.43,1.95-5.17,2.49-3.2,2.68.53.71-3.56,3.73-4.81,2.49-3.2,1.78.35,6.59-9.79,10.68,2.13-.36,1.78,1.78.36,2.13-1.43.53-2.67,3.57.71-.36,1.78,11.57,2.3-.36,1.79-.34,6.4-2.49,17.1-1.78-.36-.54,2.67-3.55-.71-2.14,1.42-1.6,3.39-2.67-.53-3,1.25.36,7.47m-45.22-5.31.36-1.78,2.67.53-3,1.25"/><path id="Lake_and_Peninsula" data-name="Lake and Peninsula" class="cls-1" d="M314.37,294.85l-1.24,1.61-1.95.53-.36,1.79,4.44.89-11.2,5.16-1.61-1.24-1.6,3.38-5.69.71-.18.9.89.18.53,1.95-5.34-1.06L288.75,312l2.85,4.26L287.15,320l-12.1.36-.54,2.68-1.24,1.6,1.06-5.35-3.56-.71L272,317l1.42-7.12-.89-.18.71-3.55,3.56.71.35-1.78,3.57.71.35-1.79,2.67.54,2.14-1.43.17-.88,2.67.53-.17-3.74,2.48-3.21,10.68-7.13,5.16-16.56,3.55-3.91,10,1.06,1.06-5.35-7.12-1.42-.72-1.05L312.4,263l.18-.89-.36-7.47,3-1.25,2.67.53,1.6-3.38,2.14-1.43,3.55.71.54-2.67,1.78.36L330,230.4l.34-6.4.36-1.79,14.42,1.95,5.51.18,5.35,1.07v9.25l-1.78-.36-.53,7.31-1.78-.36.54,2-1.07,5.34-.89-.18-.36,1.79-1.77-.36-.36,1.78-1.25,1.6-1.06.72-2.14,1.42-1.6,3.39-2.67-.53-.71,3.55.71,1.07-.35,1.78-.36,6.41,3.57.71-.89,4.45-3,1.25-4.81.89-3.92,1.07-.53,7.3-4.1,2-2.31,2.32-1.06.7-.72-1.06-1.06.71-3,1.25-2.31,2.31m-9.6,15.68,1.6,1.24-3.56-.71,1.07-.71.89.18"/><path id="Kenai_Peninsula" data-name="Kenai Peninsula" class="cls-1" d="M341.94,258.71l1.6-3.39,2.14-1.42,1.06-.72,1.25-1.6.36-1.78,1.77.36.36-1.79.89.18,1.07-5.34-.54-2,1.78.36.53-7.31,1.78.36v-9.25l.17-.9.71-8.18.36-1.78.89.17,3.73-.17,3.56.71,2-.54L378.25,216l-.71,3.57,2.66.53,1.61,1.24-2.14,1.43-5.17,2.67-4.81,5.52L364.18,240l-.88,4.45-5.87,6.23-5,1.79-3.38,3-3,1.25-1.95,5.16.53,2,1.07-.71,3.74-.18,3.75,4.45-.18.89L351.2,268l.36,2.85-4.45-.88.53,1.95-2.84.37L338.56,271l.36-6.41.35-1.78-.71-1.07.71-3.55,2.67.53m26.89-.2,7.11-3.2,2.5-3.21-1.79-.36-3.19,2.14-1.61-1.24-1.42-2.14,2-5.16,2.65-4.1,1.61-3.39.71-3.55-1.07-3.92,3.92-1.07,6.4-4.28,1.43,2.14,2.67.53,3-1.25,2.5,1.43,3.56.71.71,1.07,2.32,2.31,1.78.36-.18.89.18,3.73-.18.9.71,1.07-.7,8.18-.18.9-7.3-.54L393,248.53,392,253.88l-7.3,4.09-.71-1.06-2.13,1.42-2.67,4.09-8.56,1.08-2.3-2.32.53-2.67"/><path id="Anchorage" class="cls-1" d="M393.73,226.45,390,222l1.08-.71.17-.89.89.18,2.49-3.21,1.06-.71.9.18,1.07-.72.88.18.72,1.07,7.48-.36-.53,2.67.35,2.84-.53,2.68.71,1.06-.71,3.56-2.67-.53-.35,1.78.71,1.07-.89-.18-2.32-2.31-.71-1.07-3.56-.71-2.5-1.43"/><path id="Valdez-Cordova" class="cls-1" d="M406.38,228.06l.35-1.79-.71-1.06.53-2.68-.35-2.84.53-2.67,7.29.52,5.53.19-.72-1.08.89.18,1.95-.53.18-10.15.18-.89-.89-4.81h4.63l1.06-.71-.35-2.85.18-.89-.37-12.1-.36-2.85,3.92-1.07,2.85-.36.89.17,2-.53,2.68.54,2.49,1.41.89.18,15.84-.54,1.25,3v4.63l-.53,2.67,2.67.53,1.43-2.49,3.55.71,3.92,3.56.54,6.59,1.6,1.24-.17.89.18,3.74,7.65-1.26,2.86,32.05-1.78-.36-6.59.54.36-1.78-1.78-.36L460.33,236l-6.77,10.68-10.87-5.87.54-2.67-3.92,1.07,1.43,2.14-6.59-4.09-9.43,5.52-1.25-3,1.43-2.49,1.77.36,3.92-1.07,2.14-1.43.35-1.78-4.81.89-3.56-.71-.71-1.07,4.09-2,1.07-.72-3.92,1.07-.53-1.95-1.07.71.89-4.46-5.87,1.61-1.42,2.49-6.77,1.43-.89-.18,2-5.16-2,.54-1.78,4.27,2.5,1.42,1.42,6.76-1.6,3.39L413,246l-2.31,2.32-6.41-.35.18-.9.7-8.18-.71-1.07.18-.9-.18-3.73.18-.89-.89-.18-.71-1.07.35-1.78,2.67.53.36-1.77m13.71.88-.18.89-1.78-.36,2-.53m-3.56,3.91,1.59,1.25-1.95.54.36-1.79m-5.35-1.06,1.61,1.25-1.07.71-.72-1.07.18-.89m3.92,3.56-1.78,8.9L411,241.94l1.78-4.28,2.31-2.31m4.81,8.36L417.6,246l-2,5.17-3.92,1.07.71-3.56,5.87-6.23.35-1.78,1.07-.72,2.5,1.43-2.32,2.31"/><path id="Matanuska-Susitna" class="cls-1" d="M398.53,216.31l-.88-.18-1.07.72-.9-.18-1.06.71-2.49,3.21-.89-.18-.17.89-7.13-1.43-2.13,1.43-1.61-1.24-2.66-.53.71-3.57-10.88-1.24-2,.54-3.56-.71.36-1.79-.71-1.07,1.6-8-.72-1.06,1.25-6.23.88-9.08,10,1.06.36-1.78,24.21-10,12.82.7.18-.89-.54-1.95,10.15.17h4.63l-.36,6.41.36,2.85.37,12.1-.18.89.35,2.85-1.06.71h-4.63l.89,4.81-.18.89-.18,10.15-1.95.53-.89-.18.71,1.08-5.52-.19-7.29-.52-7.48.36-.72-1.07"/><path id="SE_Fairbanks" data-name="SE Fairbanks" class="cls-1" d="M432.7,179.62l-2.85.36-3.92,1.07.36-6.41h-4.63l-.37-16.74,5.7-.72,2.31-2.3,3-1.25,2.67.53,12.28-5.88,3.56.71.18-.89,2.31-2.32-1.25-3,1.25-1.6,1.24-1.61,3-1.25,2-5.16.88.18,3.21-2.14,2.85-.36,3.38-3,.53-2.67,2.31-2.32,6.81,81.88L471.88,206l-.18-3.74.17-.89-1.6-1.24-.54-6.59-3.92-3.56-3.55-.71-1.43,2.49-2.67-.53.53-2.67v-4.63l-1.25-3-15.84.54-.89-.18-2.49-1.41-2.68-.54-2,.53-.89-.17"/><path id="Fairbanks_North_Stark" data-name="Fairbanks North Stark" class="cls-1" d="M407.05,150.44l.18-.89-.37-12.11.9.18H417l1.25-1.6,3.56.71L424,135.3l2.32-2.32,2-.54,1.6,1.25-.36,1.79,1.43,2.13.89.18,1.25,3,.71,1.07,10.5-1.61h4.63l-1.25,1.6-.35,6.41L435,154.16l-2.67-.53-3,1.25-2.31,2.3-5.7.72-6.41-.34-2.49-1.43-.88-.18-2.68-5.15-1.78-.36"/><path id="Denali" class="cls-1" d="M399.05,176.61l-24.21,10-.36,1.78-10-1.06,5.51-9.09.54-2.67L367.17,174l.18-5.53,5.53.18,2.48-3.21-.18-3.74,3.2-2.13,1.79.35,2.5,1.43,5-6.41,13.7.88,11,.35,2.49,1.43,6.41.34.37,16.74-10.15-.17.54,1.95-.18.89-12.82-.7"/><path id="Bethel" class="cls-1" d="M356.87,216.33l-.71,8.18-.17.9-5.35-1.07-5.51-.18-14.42-1.95-11.57-2.3.36-1.78-3.57-.71-.53,2.67-2.13,1.43-1.78-.36.36-1.78-10.68-2.13L294.58,227l-1.78-.35-2.49,3.2-3.73,4.81-.71,3.56-2.68-.53-2.49,3.2-1.95,5.17-2.14,1.43-2.85,5-1.77-.36-.71,3.57-3.56-.71-.71,3.56-2.85.35-6.06-2.13,2-.54,1.6,1.25,1.61-3.38.17-5.52-1.08-3.92,4.45-3.74-.71-5.69.18-.89-2.68-9.79-2.48,3.21-7,2.3-6.42-.34-3.2-2.5-.36-2.84-2.49-6.06-6.59-8.72,6-2.49-.36-2.85-1.78-.36.18-.89,1.06-.71,5.35,1.07h4.63l5.87-6.23h9.26l1.07-.72,2.85-.35,5,2.85,8.36-.18,3.21-2.15,5-1.78-.54-2,11.57,2.31.36-1.78,7.12,1.42.36-1.78L324.12,195l-.36,1.79,13.35,2.66h4.62l8,1.6,3.75-.18,1.77.36.36-1.79,3.74-.17.18-.9,1.06-.7,1.78.35,1.25-1.6-1.24,6.23.71,1.06-1.6,8,.71,1.07-.36,1.79-3.73.17-.89-.17-.36,1.78m-194-34.09.36,2.86.53,2,3.21,2.49.72,1.07-3.57-.71-.54-2-1.94-4.09,1.23-1.61m62,28.1,2.85-.36,3.74,4.45-2,5.16-1.25,1.61-4.8.89-8-6.23-2.14-3.2.36-1.78,1.07-.71,5.33,1.07,4.1-2,.71,1.07"/><path id="Wade_Hampton" data-name="Wade Hampton" class="cls-1" d="M290.29,192.86l.54,2-5,1.78-3.21,2.15-8.36.18-5-2.85-2.85.35-1.07.72h-9.26l-5.87,6.23h-4.63l-5.35-1.07.18-.89,2-.53,1.25-1.6-3.21-2.5-1.24,1.61L236.7,197,234,187.19l2-5.16,12.27-10.51,5.16-2.68-.35-2.84,2.66-4.09,4.45-3.74,3.74-.18,5.17,6.58,2.86-.36,5.32-3.56,1.61,1.25,2.49,6,10.69,2.14-.88-.18-1.44,2.5-2.3,6.94L286,186.46l1.78.36-1.43,2.49-.35,1.78.72,1.06,3.55.71"/><path id="Nome" class="cls-1" d="M305.76,152.45l-.71,3.55-1.78-.35-.36,1.78-2.13,1.43-3.56-.71-2.14,1.42L294,164.92l-.88-.18-1.07,5.34-10.69-2.14-2.49-6-1.61-1.25,3.39-3,2.48,1.42,3.58.72h4.63l3.73-4.8,1.42-2.5-1.07-8.54-1.25-3,.54-2.67,1.77.35,3-1.24.53-2.67-2.84-4.28-2.32,2.32-7.47.36-4.1,2-14.07-3.73-7.48.36-9.08-5.52L251.26,124l-.53-2,1.42-2.48.18-5.52,1.07-.72,1.42-2.48-7.31-5.16L242.89,101l.53-2.67,17.8-5.71,1.42,2.14,4.28,1.78.18-.89-2.32-2.32.36-1.78,13.34-2-.88,9.08-1.42,7.12,1.61,1.25-.54,2.67.71,1.06.9.18-.71,3.56,31,7.11,1.78.36.36-1.79,3.56.71-1.07,5.34-.89-.17-1.42,7.11-1.79-.35-.71,3.57-1.77-.36-2.85,14.24,1.78.36-.35,1.78M264.07,92.29,263,93l.18-.9.89.18m-26.16,19.78,2-.54.54,2-2,.54-.53-2m-39,14.44,1.23-1.61-.53,2.67,4.63,4.63,5-1.78,1.6,1.25,1.42,2.13-.53,2.67,3.74,4.45,6.77,3.2-2.49,3.2-3.21-2.49-3,1.25-2.5-1.42-4.09-7.3-3.21-2.49-1.78-.35L198,135.59l-2.3-2.31.35-1.78,2.85-5m81.54,27.37-.36,1.78-2.67-.53,1.24-1.6,1.79.35"/><path id="Yukon-Koyukuk" class="cls-1" d="M361.49,197.81l-.89-.17-1.06.7-.18.9-3.74.17-.36,1.79-1.77-.36-3.75.18-8-1.6h-4.62l-13.35-2.66.36-1.79L309.7,193l-.36,1.78-7.12-1.42-.36,1.78-15.12-3-.72-1.06.35-1.78,1.43-2.49-1.78-.36,1.42-7.12,2.3-6.94,1.44-2.5.88.18,1.07-5.34.88.18,1.07-5.35,2.14-1.42,3.56.71,2.13-1.43.36-1.78,1.78.35,1.06-5.33-1.78-.36,2.84-14.24,1.78.36.71-3.57,1.79.35,1.42-7.11.89.17,1.07-5.34-1.78-.35,1.77-8.9,5.34,1.06.71-3.56,8.9,1.78,1.6-8,7.12,1.42-.71,3.55,3.56.71.71-3.55,3.56.71,1.42,2.13-.35,1.78,3.74-.18,1.07-5.34,5.33,1.06-.53-2,3.91-1.06,1.77.35,1.61-3.38.17-5.52-1.42-2.14-3.56-.71,1.07-5.33L357,81.21l.36-1.78-1.78-.35.89-4.45,2.67.53,42.71,3.9.9.18,19.41.16,7.47-.36.17-10.15,38.27-1.62,4.66,55.54-2.31,2.32-.53,2.67-3.38,3-2.85.36-3.21,2.14-.88-.18-2,5.16-3,1.25-1.24,1.61-1.25,1.6,1.25,3L451,148.1l-.18.89-3.56-.71.35-6.41,1.25-1.6h-4.63l-10.5,1.61-.71-1.07-1.25-3-.89-.18-1.43-2.13.36-1.79-1.6-1.25-2,.54L424,135.3l-2.13,1.42-3.56-.71-1.25,1.6h-9.25l-.9-.18.37,12.11-.18.89,1.78.36,2.68,5.15.88.18-11-.35-13.7-.88-5,6.41-2.5-1.43-1.79-.35-3.2,2.13.18,3.74-2.48,3.21-5.53-.18-.18,5.53,3.39,1.59-.54,2.67-5.51,9.09-.88,9.08-1.25,1.6-.89-.18"/><path id="North_Slope-2" data-name="North Slope" class="cls-2" d="M330.4,15.27l4.26-2.85,3-1.24.53,2-1.95.53L338,14l9.41-.89L357.38,5l6.39,5-.35,1.78-3.19,2.13-.54,2.67,2.84-.36,2.67-4.08,2.12-1.43,2.14,3.19.17,3.74L372.12,19l1.24-1.6H378l7.11,1.41.7,1.08-2.3,2.3-.18.89L388.45,25,387,27.48l3.55.71,5-1.77,9.94,1,5.86,3L414,31l2.47,1.42.72,1.07,3.55.7h4.62l5.33,1.07,5.86,3,1.95-.54,4.08-1.95,1.06-.72,2.13-1.41,6.05,2.12,13.31,7.27,1.6,15.09.9,9.41-38.17,1.62-.17,10.11-7.46.36-19.35-.15-.9-.18L359,75.44l-9.76-2,.35-1.78-7.1-1.41.36-1.78-7.11-1.42-7.27-.53-5.34-1.06.36-1.76-2.66-.53-.18.87-8-1.59-1.61-1.23-.89-.18L310,62l-3.55-.71-.54-1.95-4.44-.89-.35,1.78-1.78-.36-12.26-3.36-.7,3.54-6.22-1.24-4.79-3.72L273.43,51l2.83-5,2.13-6,6,2.13,8.17.7,2.83-.35L302,37.29l4.26-7.45,6.92-6.93,4.26-2.85,2.49,1.43,3.9-1.07,6.57-5.15"/><path id="Northwest_Arctic-2" data-name="Northwest Arctic" class="cls-2" d="M361.85,102.77l-1.77-.35-3.9,1.06.54,2-5.33-1.06-1.06,5.32-3.73.18.35-1.77L345.53,106l-3.55-.71-.7,3.54-3.56-.71.71-3.54-7.1-1.42-1.59,8-8.88-1.77-.71,3.55-5.32-1.07-1.77,8.88-1.78-.35-.35,1.78-1.78-.36-30.9-7.09.71-3.55-.89-.18-.71-1.06.53-2.66-1.6-1.25,1.42-7.1.88-9.06,3.55.71,1.6,1.24-3,5.86.18,3.74,15.63,4.95,5.32-3.54,2.67.53-.54-2-2.31-2.3-2.3-2.3-2.68-5.16-1.59-1.24-.36-2.84,1.07-.71,1.76.35L299,93.93l2.85,4.26,1.95-.53-1.6-1.24-1.95-4.09,2.84-5,.71,1.06.17-.88-2.3-2.31h-4.62l-3.56-.71-5.68-3.9-.71-10.29-6.94-11.55L286.39,60l.7-3.54,12.26,3.36,1.78.36.35-1.78,4.44.89.54,1.95L310,62l.17-.88.89.18,1.61,1.23,8,1.59.18-.87,2.66.53-.36,1.76,5.34,1.06,7.27.53,7.11,1.42-.36,1.78,7.1,1.41-.35,1.78,7.1,1.42-.89,4.44,1.78.35-.36,1.78,2.84,4.26-1.06,5.32,3.55.71,1.41,2.13-.16,5.5-1.61,3.37"/><path id="Ketchikan_Gateway-2" data-name="Ketchikan Gateway" class="cls-2" d="M597.57,314.1l4.43-3.72,5.87,7.63.71,5.67-1.42,2.49-3.73.18-5.86-3,.35-1.78,1.25-1.6-1.6-5.86m.89,9.41,2.31,2.31.18,3.73-2.14-3.2-.35-2.84"/><path id="Prince_of_Wales-Outer_Ketchikan-2" data-name="Prince of Wales-Outer Ketchikan" class="cls-2" d="M592.06,318.55l2.49,1.42.71-3.56-.71-1.06.71-3.55,1.24-1.6,3-1.24,3.37-3,1.24-1.59L601.82,302l3.73-.18,4.8,3.73,2.66.53,1.23-1.6,2.32,2.31-1.06,5.33,4.61,9.22-1.42,7.1-3,5.86-2.84.36-1.59-1.24-3.2-7.1,1.59-3.37-2.31-6.93L602,310.38l-4.43,3.72-2,.54,1.6,1.24L596,322.1l-2.66-.53-2.14-3.2.89.18m-18.46-9.23,4.78-.89,11,9.58,4.09,7.28,3.2,2.48,2.84,8.88-.53,2.67-2.84.35-4.44-5.5-7.46-4.26,3.19,7.1,2.14-1.42,1.6,1.25.89,4.79-2.67-.53-9.23-9.23-.54-1.95,4.26-2.85-2.13-3.19-2.66-.53L575,320.69l1.06-.72,1.78.36,1.07-.71-2-4.09-1.42,2.5-1.95.52-.71-1.06,1.42-2.49-.89-4.79.18-.89m-.89,9.06-.35,1.77-.71-1.06,1.06-.71m29.12,11.35-.17-3.73,3.37,1.59.36,2.85-3,1.24-.54-1.95m-25.93-4.26,3.92-1.06,1.6,1.25-2.67,4.08-3.38-1.6.53-2.67m31.26,5.32.71,1.06-.35,1.78-2.66-.53,2.3-2.31"/><path id="Wrangell-Petersburg-2" data-name="Wrangell-Petersburg" class="cls-2" d="M594.55,315.35l.71,1.06-.71,3.56-2.49-1.42,1.43-2.49-.37-7.45L591.53,312l.53,2-1.24,1.6-4.26-1.77-2.31-2.31.35-1.78,2.49-3.19-.54-6.57-5-2.84-2.31-2.31-.52-1.95h-4.63l-2.65-.53,1.23-1.6,2.67.53,1.6-3.38,2.31-2.3,3.72-.18,2.14,3.2-.53,2.66,3.72-.18.18,3.73,2.49,1.42,2.13,3.19,2-.53,6.75,3.19,2.31,2.31-1.24,1.59-3.37,3-3,1.24-1.24,1.6-.71,3.55m-26.11-17.21-2.31-2.31,1.24-1.59,6.21,1.24,3-1.25,8.7,7.28-3.37,3-2.67-.53.35-1.78-3.9-3.55-.35,1.77,3.2,2.49.52,1.95-1.23,1.6-2.67-.53-.17.89-2,.53-1.6-5.86-.72-1.07-1.59-1.24-.71-1.06m-.88,9.05-3.91-3.54-1.24-3,1.41-2.49,1.95-.53,2.32,2.3,2.65.53,1.07,3.92-1.95.53-.36,1.77.37,2.84,1.77.35-1.07,5.33-1.41-2.13v4.62l-1.6-1.24-.89-4.79.53-2.67,1.77.35-1.41-2.13m13.13-1.06,3-1.25,1.07,3.91-1.95.53-2.67-.54.53-2.65m-18.28,8.34-.53-2,.88.18-.53,2.67.18-.9m5.51,4.8,1.77.35-1.24,1.6-1.6-1.24,1.07-.71"/><path id="Sitka-2" data-name="Sitka" class="cls-2" d="M545.88,281.64,550,284.3l3.91-1.07,1.78,5-.18.89-2.84.35-5.68-3.9-1.07.71,2,4.09-1.42,2.49-1.78-.36-6.57-8.7,3.72-.17.71-3.56,3.38,1.6m16.53,32.83-.18.9-1.6-1.25-3.55-5.32.53-2.67-2.13,1.43-.53-2-2.49-1.42-.71-5.67-1.43-2.14.36-1.77-1.95.53-2.31-2.3,2.84-5,3.2,2.49,3.72-.19.53,2-2,.54,1.78.35,4.27,11,2,8.69-.88-.18.53,2m-17.06-20.93,1.07-.71,2.84,4.25-.53,2.67-2,.53-1.43-6.74"/><path id="Haines-2" data-name="Haines" class="cls-2" d="M547.82,258l-1.07.71-1.77-5-2.31-2.31-.18.89,3,8,2.48,6,3,8-3.55-.71-2.14-3.19-.71-1.07,2.13-1.42-1.42-2.13-4.26-1.78,1.77-4.26-3-3.37-8-1.59,1.42-7.11,4.43-3.72,6,6.74,2.84-.36.72,1.07,3.54.71,1.42,2.13,1.07-.72,1.25,3,.88.18L547.82,258"/><path id="Juneau-2" data-name="Juneau" class="cls-3" d="M567.89,277.72l-.35,1.78-1.77-.35-5.16-6.57-4.79.88-6.22-5.84-2.85-8.88,1.07-.71,7.63-1.25,1.42,2.13,2.49,1.42,8.17,5.32-.35,1.78,3.91,3.55-3,5.85-.18.89m-11.71-1.41-1.79-.35-.35-2.85.71,1.06,1.07-.71h4.61l-3,1.24-1.07.71-.17.89"/><path id="Skagway-Hoonah-Angoon-2" data-name="Skagway-Hoonah-Angoon" class="cls-2" d="M543.73,250.75l-6-6.74L540,241.7l3.37,1.59,2.31,2.31.89,4.79-2.84.36m.9,18.64.71,1.07-5,1.77-.71-5.67-2.14-3.2-.35,1.78-.89-.18-7.63-3.37-.18.89,3.55.7,5,2.84,2.49,6-6.38,4.26-3.2-2.48-1.78-.36-2.49-1.41-8.16-5.33,4.26-2.84,6.91-6.93,2.85-.35.35-1.78,8,1.59,3,3.37-1.77,4.26,4.26,1.78,1.42,2.13-2.13,1.42m30.73,21.82-2.67-.53-1.23,1.6v-4.62l-3.55-5.32.36-1.77-.37-2.85.18-.89,3-5.85L583,285.35l-3.72.18L577,287.84l-1.6,3.37m-17.94-16.5,3-1.24-.17.88,5.69,8.52-1.78-.35-2-4.08-1.06.71,5,7.45.54,2-2.31,2.3-.53,2.67-3.55,3.9-2-4.07,1.07-5.34-3.73-4.44-2.14-7.8-2.67-5.15.18-.89.89.18,2.13,3.19.35,2.85,1.79.35.17-.89,1.07-.71m-11.54,6.93L542.5,280l-.71,3.56-3.72.17-2.49-1.41-.35-2.85,1.77-4.25,3.73-.18,2.13-1.42,9.41,3.72.53,1.95.35,2.84-1.06.71-2,.53-4.26-1.77"/><path id="Yakutat-2" data-name="Yakutat" class="cls-2" d="M482.48,238.53l4.43.89,1.25-1.6,5.15,2,2.48-3.19,5.68-.72-.17,5.5,1.6,1.25,4.26,1.77,1.24,3,11.9,9.76,1.43,6.75-4.26,2.84.35-1.77-2.31-2.31-18.64-8.34-.71-1.06.35-1.77,1.77.35.36-1.78-1.77-5-1.43,2.49-4.26,2.84-8.17-.71L478.22,246l-11.71-1.41-13.32,1.95,6.75-10.65,12.24-1.25L474,235l-.35,1.78,6.57-.54,1.78.36.53,1.95"/><path id="Aleutians_West-2" data-name="Aleutians West" class="cls-2" d="M165.42,259.29l-2.13,1.42-.71-1.07.17-.89,2.67.54m1.6,15.09.89.17-1.06.71-1.43-2.13,1.6,1.25m18.84,62.83,2.85,4.26-1.25,1.6L179.3,347l-2.84.36-2.66-.53-7.64,1.24-2.31-2.31,10.48-1.6,2.3-6.93,1.07-.71,5.5.18-.36,1.77.72,1.07,1.06-.71,1.24-1.6m-33.89,8,6-2.49,1.22-1.6,2-.54,2.84-.35,2.49,1.42-2.49,3.2-3.73.18L155,348.59l-5.85,1.6-2.84.36,5.32-3.56.36-1.77M24.11,319.72l.72,1.06-1.07.71-.71-1.06,1.06-.71m8.71,2.65,1.78.36,1.06,3.91-3,1.24-1.6-1.24V322l1.78.35m107.43,21.44-.35,1.77-.72-1.07,1.07-.7m-4.79.88.88.18-1.06.71-.72-1.07.9.18m-55.59-8.31-.71-1.06,3.91-1.08,1.24,3-3.37,3-5.32-1.06-9.41-3.73,8.7,2.67,4.79-.9,1.06-.7-.89-.18M57.15,330l1.77.35-.36,1.78-1.05.71-1.6-1.24.35-1.78.89.18m-13.32-2.66,1.6,1.25-3.37,3-1.78-.35L38,328.94h4.62l1.24-1.6m95,19,.71,1.07-1.07.71-3.37-1.6,1.06-.71,2.67.53M51.12,332.48l2.48,1.43-1.24,1.59-9.06-.89L49,329.29l2.67.54-.18.88-.89-.18-1.25,1.6,1.79.35m82,14.52.89.18-.18.89-.89-.18Zm-6.21-1.24.71,1.07-1.25,1.6-2.65-.53.35-1.78,2.84-.36M60.88,334.43l.71,1.07-.89-.18.18-.89m-6.39-.35,2.66.54.71,1.06L55,336l-1.6-1.24,1.07-.71m-36.4-7.26-.18.89-1.07.71,1.25-1.6m100.31,20,.72,1.07-1.07.71-.71-1.07,1.06-.71m-15.09-3,.72,1.07-.18.88-3.56-.7,1.07-.71,2-.54M87,342.41l1.6,1.24,5.86,3-7.1-1.42L84,343.65l-2.14-3.19,2.49,1.42,2.66.53M16.13,327.35l-.35,1.77-.89-.17,1.24-1.6"/><path id="Aleutians_East-2" data-name="Aleutians East" class="cls-2" d="M273.74,322.44l-.35,1.77-.53-1.95.35-1.78-1.6-1.24-1.24,1.6-1.77-.36-1.25,1.6-5.15,2.67-8.51,1.07-3.39-1.6,2.67-4.08-2.66-.53-6.57,9.76-3.91,1.07L237.34,329l.89-4.44-1.59-1.24-1.25,1.59.54,2,.17,3.73-3.73.18-.89-4.8-2.84.36,1.07,3.91-1.06,5.32-2.49-1.42-3.73.18-6.21-1.24-2,.54-3.19,2.13-4.44-.89-.35-2.83.35-1.78,2.84-.36,2.31-2.31,10.65-2.49,2.66.53v4.62l1.78.35,1.06-5.33,5.68-.71,9.78-7.28,6.2-3.38,5.68-.71,2.49,1.42,2.49,1.42-.89-.18-.36,1.78.54,2,2-.54,1.24-1.6.53-2.67,3.9-5.68,6.21-3.37,12.07-5,.71,1.07-.18.88-2.12,1.42-2.67-.53-.35,1.78-3.56-.71-.35,1.78-3.55-.71-.71,3.54.89.18-1.41,7.1-1.25,1.6,3.55.71-.71,3.56m-9.05,3.72,1.77.35-.35,1.79-1.77-.36-.72-1.06,1.07-.72m-3.2,2.14,1.78.35-.35,1.78-2.31,2.3-3.37-1.59-.18-3.73,1.06-.71,1.78.36,1.59,1.24m6.93,2.31.18,3.72-5.5,4.44,1.06-5.33,1.06-.71,1.61,1.24,1.59-3.36m4.26,1.76-.88,4.44-1.77-.35,2.65-4.09m-25.39-2.29.72,1.07-1.78-.36-1.43-2.13,1.07-.71,1.42,2.13m26.45,6.2.54,2-1.95.53.53-2.67.88.18m-34.08-4.95-.36,1.77-1.06.71-1.43-2.13,2.85-.35m34.45,7.79.71,1.07-1.07.71.36-1.78m-43.51.56,2.5,1.41-.18.9-2.67-.54-.71-1.07,1.06-.7m-33.2-4.78.89.18-.36,1.77-2.12,1.42-.36-2.84,1.06-.71.89.18M194.21,337l-1.25,1.6-2.66-.53-.53-2,2.13-1.43,2.31,2.31m8.7,2.66.89.18-.18.88-3.55-.7,2.84-.36m-3.73.18.71,1.06-2.49-1.42,1.78.36"/><path id="Kodiak_Island-2" data-name="Kodiak Island" class="cls-2" d="M314.38,294.53l2.3-2.3,3-1.25,1.06-.7.72,1.06,1.06-.71,2.3-2.31,4.09-2,.53-7.27,3.9-1.07,4.8-.89,3-1.25.89-4.43,2.67.53,2.83-.36-.53-1.95,4.43.88-.35-2.84,1.78.36-1.43,2.48L349.34,272l-2,.54-2.3,2.31-2.12,6-2.32,2.31-3,1.24-1.6-1.24-2.84.36L331.06,285,328.39,289l-1.76-.36-3.38,3-1.95.54-.71-1.07-.36,1.78-6,2.49-.17.88,1.94-.53-.71,3.55-4.42-.88.35-1.78,1.95-.54,1.24-1.6m41.35-8.36-1.06.71-4.08-2.66,4.61-4.62,4.8-5.5,2.83-.36-1.59,3.38-.35,1.77,3.73-.18,1.59,1.24.35,2.85-1.23,1.59-7.63,1.25-2.32-2.31-1.07.72,1.42,2.12M343,294.7l.36,2.84,1.6,1.24-1.42-2.12.53-7.29,2.13-1.41,5.5.17,2-.54,2.68.53-1.43,2.49.72,1.07,4.25-2.85,2-.53-1.6,3.38,1.25,3,1.77.35-2.48,3.2-5.34,3.55-5.5,4.44-1.06.71-.53-1.95,1.24-1.61-.89-.17-3.89,5.68L341.54,311l-2.84.35-1.23-3-1.79-5-.35-2.85-1.42-2.13,1.77-4.26,3.19-2.13h4.62L343,294.7m-4.78,19.36,3.38,1.59-1.07.71-3.55-.71-.7-1.06,1.94-.53m-3.55-.71,1.61,1.24-5.16,2.67.36-1.78,3.19-2.13m-14.55,12.78,1.6,1.25-.71,3.55-3.37-1.6.35-1.77,2.13-1.43"/><path id="Bristol_Bay-2" data-name="Bristol Bay" class="cls-2" d="M314.37,262.22l7.1,1.42L320.41,269l-10-1.06,2.31-2.3,1.6-3.39"/><path id="Dillingham-2" data-name="Dillingham" class="cls-2" d="M312.59,261.87l-.17.89L300.7,266l-1.6-1.24-2.48-6-1.07.72-1.6,3.37.89,4.79-3,1.25-1.77-.36-3.38-10.82-1.6-1.25-1.41,2.49-.89-.18L279,254.26l1.06-.71-.71-1.07-8,3,.71-3.56,1.77.35,2.85-5,2.12-1.42,1.95-5.16,2.49-3.19,2.66.53.71-3.56,3.72-4.79,2.49-3.19,1.77.35,6.57-9.77,10.65,2.13-.35,1.77,1.77.36,2.13-1.43.53-2.66,3.55.71-.35,1.77,11.53,2.3-.35,1.78-.35,6.39-2.48,17.05-1.78-.35-.53,2.66-3.54-.71-2.13,1.42-1.6,3.38-2.66-.53-3,1.24.36,7.45m-45.09-5.29.35-1.78,2.66.53-3,1.25"/><path id="Lake_and_Peninsula-2" data-name="Lake and Peninsula" class="cls-2" d="M314.38,294.53l-1.24,1.6-1.95.54-.35,1.78,4.42.89-11.17,5.15-1.6-1.24-1.59,3.37-5.68.71-.18.89.89.18.53,2-5.33-1.06-2.3,2.31,2.84,4.26-4.43,3.72-12.08.37-.53,2.67-1.24,1.59,1.06-5.33-3.55-.71,1.25-1.6,1.41-7.1-.89-.18.71-3.54,3.55.71.35-1.78,3.56.71.35-1.78,2.67.53,2.12-1.42.18-.88,2.66.53-.17-3.73,2.48-3.2,10.64-7.11,5.15-16.51,3.54-3.91,10,1.06,1.06-5.33-7.1-1.42-.71-1.05-1.24,1.59.17-.89-.36-7.45,3-1.24,2.66.53,1.6-3.38,2.13-1.42,3.54.71.53-2.66,1.78.35L330,230.26l.35-6.39.35-1.78L345.05,224l5.5.18,5.33,1.06v9.23l-1.78-.36-.53,7.28-1.77-.35.53,1.95-1.06,5.33-.89-.18L350,250l-1.78-.35-.35,1.77-1.25,1.6-1.06.71-2.13,1.42-1.59,3.38-2.67-.53-.71,3.54.71,1.07-.35,1.77-.36,6.4,3.56.71-.89,4.43-3,1.25-4.8.89-3.9,1.07-.53,7.27-4.09,2-2.3,2.31-1.06.71-.72-1.06-1.06.7-3,1.25-2.3,2.3m-9.58,15.64,1.6,1.24-3.55-.71,1.07-.71.88.18"/><path id="Kenai_Peninsula-2" data-name="Kenai Peninsula" class="cls-3" d="M341.88,258.49l1.59-3.38,2.13-1.42,1.06-.71,1.25-1.6.35-1.77L350,250l.35-1.78.89.18,1.06-5.33-.53-1.95,1.77.35.53-7.28,1.78.36v-9.23l.18-.89.71-8.17.35-1.77.89.17,3.72-.17,3.55.71,2-.54,10.84,1.24-.71,3.55,2.66.53,1.61,1.24-2.14,1.43-5.15,2.66-4.8,5.5-5.49,9.06-.89,4.44-5.85,6.21-5,1.79-3.37,3-3,1.25L344,261.68l.53,1.95,1.07-.71,3.72-.18,3.74,4.44-.18.89-1.78-.36.35,2.84-4.43-.88.53,1.95-2.83.36-6.23-1.24.36-6.4.35-1.77-.71-1.07.71-3.54,2.67.53m26.81-.19,7.09-3.2,2.5-3.2-1.79-.36-3.18,2.13-1.61-1.24-1.41-2.13,1.95-5.15,2.64-4.08,1.61-3.38.71-3.54-1.07-3.91,3.91-1.07,6.39-4.26,1.42,2.13,2.66.53,3-1.25,2.48,1.42,3.56.71.71,1.07,2.31,2.31,1.77.35-.18.89.18,3.72-.17.89.71,1.07-.71,8.17-.17.89-7.29-.53-3.9,1.06-1.06,5.33-7.28,4.09-.71-1.07-2.13,1.43L379,262.19l-8.53,1.07-2.3-2.31.53-2.65"/><path id="Anchorage-2" data-name="Anchorage" class="cls-4" d="M393.53,226.32l-3.73-4.43,1.07-.71.17-.88.89.17,2.48-3.2,1.06-.7.9.17,1.06-.71.89.17.71,1.08,7.46-.37-.53,2.66.35,2.84-.53,2.67.71,1.06-.71,3.55-2.66-.53-.35,1.78.71,1.06-.89-.17-2.31-2.31-.71-1.07-3.56-.71-2.48-1.42"/><path id="Valdez-Cordova-2" data-name="Valdez-Cordova" class="cls-2" d="M406.13,227.92l.36-1.78-.71-1.06.53-2.67-.35-2.84.53-2.66,7.27.53,5.51.18-.71-1.08.89.18,1.94-.53.18-10.11.18-.89-.89-4.8h4.61l1.06-.71-.35-2.84.18-.89L426,183.88l-.36-2.84,3.91-1.07,2.84-.36.88.18,2-.53,2.67.53,2.49,1.41.88.18,15.81-.53,1.24,3v4.62l-.53,2.66,2.66.53,1.42-2.48,3.55.7,3.91,3.55.53,6.57,1.61,1.25-.18.88.18,3.73,7.63-1.25,2.86,32-1.78-.36-6.57.54L474,235l-1.77-.35-12.24,1.25-6.75,10.65-10.83-5.85.53-2.66L439,239.09l1.43,2.12-6.58-4.07-9.4,5.51-1.25-3,1.42-2.48,1.78.36,3.9-1.07,2.13-1.42.36-1.78-4.8.89-3.55-.71-.71-1.07,4.08-2,1.07-.71L425,230.75l-.53-1.95-1.07.71.89-4.44-5.85,1.6L417,229.15l-6.75,1.43-.89-.18,1.95-5.15-1.95.54-1.77,4.26,2.49,1.41,1.42,6.75-1.6,3.38,2.84,4.25-2.31,2.31-6.38-.34.17-.89.71-8.17-.71-1.07.17-.89-.18-3.72.18-.89-.88-.18-.71-1.06.35-1.78,2.66.53.35-1.77m13.68.88-.18.89-1.78-.36,2-.53m-3.55,3.9,1.59,1.25-2,.53.36-1.78m-5.33-1.06,1.6,1.25-1.07.71-.71-1.07.18-.89m3.91,3.55-1.77,8.88-2.31-2.31,1.77-4.26,2.31-2.31m4.79,8.34-2.3,2.31L415.38,251l-3.91,1.07.71-3.55,5.85-6.22.36-1.77,1.07-.72,2.48,1.43-2.31,2.3"/><path id="Matanuska-Susitna-2" data-name="Matanuska-Susitna" class="cls-4" d="M398.32,216.2l-.89-.17-1.06.71-.9-.17-1.06.7-2.48,3.2-.89-.17-.17.88-7.11-1.42-2.12,1.42L380,219.94l-2.66-.53.71-3.55-10.84-1.24-2,.54-3.55-.71.36-1.78-.71-1.07,1.59-8-.71-1.06,1.24-6.21.88-9.06,9.95,1.06.35-1.77,24.15-10,12.79.7.17-.88-.53-2,10.12.17H426l-.35,6.39.36,2.84.36,12.07-.18.89.35,2.84-1.06.71h-4.61l.89,4.8-.18.89-.18,10.11-1.94.53-.89-.18.71,1.08-5.51-.18-7.27-.53-7.46.37-.71-1.08"/><path id="SE_Fairbanks-2" data-name="SE Fairbanks" class="cls-2" d="M432.39,179.61l-2.84.36L425.64,181l.35-6.39h-4.61L421,158l5.69-.72,2.3-2.3,3-1.25,2.66.53,12.25-5.86,3.55.71.18-.89,2.3-2.31-1.24-3,1.24-1.59,1.24-1.6,3-1.25,1.95-5.15.89.18,3.19-2.13,2.84-.36,3.38-3,.53-2.66,2.3-2.31,6.79,81.66-7.63,1.25-.18-3.73.18-.88L469.85,200l-.53-6.57-3.91-3.55-3.55-.7-1.42,2.48-2.66-.53.53-2.66v-4.62l-1.24-3-15.81.53-.88-.18-2.49-1.41-2.67-.53-2,.53-.88-.18"/><path id="Fairbanks_North_Stark-2" data-name="Fairbanks North Stark" class="cls-4" d="M406.81,150.51l.17-.88-.36-12.08.89.18h9.23l1.25-1.6,3.55.71,2.12-1.42L426,133.1l2-.54,1.6,1.25-.36,1.78,1.42,2.13.89.18,1.24,3,.71,1.06,10.48-1.59h4.61l-1.24,1.6-.35,6.39-12.25,5.86-2.66-.53-3,1.25-2.3,2.3L421,158l-6.39-.35-2.48-1.42-.89-.18-2.67-5.14-1.77-.36"/><path id="Denali-2" data-name="Denali" class="cls-2" d="M398.83,176.61l-24.15,10-.35,1.77-9.95-1.06,5.5-9.06.53-2.66L367,174l.18-5.52,5.51.19,2.47-3.2-.17-3.73,3.19-2.13,1.78.35,2.49,1.42,5-6.39,13.67.88,11,.35,2.49,1.42L421,158l.37,16.69-10.12-.17.53,2-.17.88-12.79-.7"/><path id="Bethel-2" data-name="Bethel" class="cls-2" d="M356.77,216.22l-.71,8.17-.18.89-5.33-1.06-5.5-.18-14.38-1.95-11.53-2.3.35-1.77-3.55-.71-.53,2.66-2.13,1.43-1.77-.36.35-1.77-10.65-2.13-6.57,9.77-1.77-.35-2.49,3.19-3.72,4.79L286,238.1l-2.66-.53-2.49,3.19-1.95,5.16-2.12,1.42-2.85,5-1.77-.35-.71,3.56-3.55-.71-.7,3.55-2.84.35-6.05-2.13,1.95-.53,1.6,1.24,1.6-3.37.18-5.51-1.08-3.9,4.44-3.74-.71-5.67.18-.89-2.67-9.76-2.48,3.2-6.93,2.3-6.4-.35-3.19-2.48-.36-2.84-2.49-6-6.57-8.7,6-2.48-.35-2.84-1.78-.36.18-.88,1.06-.71,5.33,1.06h4.62l5.86-6.21h9.24l1.06-.72,2.84-.35,5,2.84,8.34-.18,3.2-2.14,5-1.77-.53-2,11.53,2.3.36-1.77,7.11,1.41.35-1.77,14.38,1.95-.36,1.77,13.31,2.66h4.62l8,1.6,3.74-.18,1.77.35.35-1.77,3.74-.18.18-.89,1.05-.71,1.78.36,1.24-1.6-1.24,6.21.71,1.06-1.59,8,.71,1.07-.36,1.78-3.72.17-.89-.17-.35,1.77m-193.53-34,.36,2.85.53,1.95,3.2,2.48.71,1.07-3.55-.71-.54-2L162,183.83l1.23-1.6m61.79,28,2.84-.36,3.73,4.44-1.95,5.15-1.24,1.61-4.79.88-8-6.21-2.14-3.19.36-1.78,1.07-.71,5.32,1.07,4.09-2,.7,1.06"/><path id="Wade_Hampton-2" data-name="Wade Hampton" class="cls-2" d="M290.37,192.82l.53,2-5,1.77-3.2,2.14-8.34.18-5-2.84-2.84.35-1.06.72h-9.24l-5.86,6.21H245.8l-5.33-1.06.18-.89,1.95-.53,1.25-1.6-3.2-2.49-1.24,1.6-2.49-1.42-2.66-9.76,2-5.15,12.24-10.48,5.15-2.67-.36-2.84L255.9,162l4.44-3.73,3.73-.18,5.15,6.57,2.85-.36,5.31-3.56,1.6,1.25,2.49,6,10.66,2.13-.88-.18-1.43,2.49-2.3,6.93-1.42,7.1,1.78.35-1.42,2.49-.36,1.77.72,1.06,3.55.71"/><path id="Nome-2" data-name="Nome" class="cls-2" d="M305.79,152.52l-.71,3.54-1.77-.35-.36,1.78-2.12,1.42-3.56-.71-2.13,1.42L294.08,165l-.88-.17-1.07,5.32L281.47,168l-2.49-6-1.6-1.25,3.38-3,2.48,1.42,3.56.71h4.62l3.72-4.79,1.42-2.49L295.49,144l-1.24-3,.53-2.66,1.77.35,3-1.24.53-2.66-2.84-4.27L295,132.81l-7.45.36-4.09,2-14-3.71-7.46.35-9.05-5.5-1.43-2.13-.53-2,1.42-2.47.18-5.51,1.06-.71L255,111l-7.29-5.15-4.61-4.62.53-2.65,17.75-5.7L262.79,95l4.27,1.78.17-.89-2.31-2.31.36-1.77,13.31-2-.88,9.06-1.42,7.1,1.6,1.25-.53,2.66.71,1.06.89.18-.71,3.55,30.9,7.09,1.78.36.35-1.78,3.55.71-1.06,5.32-.89-.17-1.42,7.1-1.77-.36-.71,3.56-1.78-.35-2.83,14.2,1.77.35-.35,1.78m-41.58-60-1.06.72.17-.9.89.18m-26.09,19.72,1.95-.53.54,2-2,.54-.54-2m-38.86,14.4,1.23-1.59-.53,2.66,4.62,4.62,5-1.78,1.6,1.24,1.42,2.13-.53,2.66,3.73,4.44,6.75,3.19-2.49,3.2-3.19-2.49-3,1.25-2.49-1.42-4.08-7.28-3.2-2.48-1.78-.36-3.9,1.07-2.3-2.3.35-1.78,2.84-5M280.58,154l-.36,1.77-2.66-.53,1.24-1.6,1.78.36"/><path id="Yukon-Koyukuk-2" data-name="Yukon-Koyukuk" class="cls-2" d="M361.37,197.76l-.89-.18-1.05.71-.18.89-3.74.18-.35,1.77-1.77-.35-3.74.18-8-1.6h-4.62l-13.31-2.66.36-1.77L309.72,193l-.35,1.77-7.11-1.41-.36,1.77-15.08-3-.72-1.06.36-1.77,1.42-2.49-1.78-.35,1.42-7.1,2.3-6.93,1.43-2.49.88.18,1.07-5.32.88.17,1.06-5.33,2.13-1.42,3.56.71,2.12-1.42.36-1.78,1.77.35,1.06-5.32-1.77-.35,2.83-14.2,1.78.35.71-3.56,1.77.36,1.42-7.1.89.17,1.06-5.32-1.77-.36,1.77-8.88,5.32,1.07.71-3.55,8.88,1.77,1.59-8,7.1,1.42-.71,3.54,3.56.71.7-3.54,3.55.71,1.42,2.12-.35,1.77,3.73-.18,1.06-5.32,5.33,1.06-.54-2,3.9-1.06,1.77.35,1.61-3.37.16-5.5-1.41-2.13-3.55-.71,1.06-5.32-2.84-4.26.36-1.78-1.78-.35.89-4.44,2.66.53,42.6,3.89.9.18,19.35.15,7.46-.36.17-10.11,38.17-1.62L472.3,123l-2.3,2.31-.54,2.66-3.37,3-2.84.36-3.19,2.13-.89-.18-1.95,5.15-3,1.25-1.24,1.6-1.24,1.59,1.24,3-2.3,2.31-.18.89-3.55-.71.35-6.39,1.24-1.6h-4.61L433.43,142l-.71-1.06-1.24-3-.89-.18-1.42-2.13.35-1.78-1.59-1.25-2,.54-2.31,2.31-2.12,1.42-3.55-.71-1.25,1.6h-9.23l-.89-.18.36,12.08-.17.88,1.77.36,2.67,5.14.88.18-11-.35L387.46,155l-5,6.39L380,159.93l-1.78-.35L375,161.71l.17,3.73-2.47,3.2-5.51-.19L367,174l3.37,1.59-.53,2.66-5.5,9.06-.88,9.06-1.24,1.6-.89-.18"/><path id="Kauai" class="cls-5" d="M770.91,252.33h6.29l2.71,1.8.88,2.69v1.8l-1.8,4.49v5.4l-3.59,3.59-2.69,1.81-9-.9-3.6-3.6-5.4-1.8-1.8-1.8v-2.7l2.71-3.59,9-7.19h6.29m-42.27,28.78-.89-.91.89-5.39,5.4-3.6.9-2.7h2.7l-.9,6.3-4.5,1.8-2.69,4.5h-.91"/><path id="Honolulu" class="cls-5" d="M877.93,302.68l-3.6,2.71v-.9l-5.4,1.79-4.5-2.7-9,.91-3.6.9-1.79-4.51-2.71-1.79-.89-2.7-2.7-2.7V291l-2.7-1.79,9-1.81,4.49-6.28,2.7-1.81,2.7.9,4.49,8.09h.9l.9,1.8-.9,1.8.9,2.69,3.6,2.71.9-2.71h1.8v2.71l1.8.9.89,3.6,2.71.89"/><path id="Maui" class="cls-5" d="M918.39,309.88h.91l1.8.89H922l-.89-1.8,8.08-1.79,3.6.9-1.8,3.6-5.4,3.59h-2.69l-10.79-1.79-12.59.89h-.9l2.7-7.19h.9l12.59.9,2.7.89.89.91m21.35,6.29,2.58.9,4.3,7.2,8.61-4.5,5.16.9v.9l6.89,4.5,6,1.8.86,1.79v3.59l-3.44,3.6-4.3,1.8-8.61,3.61h-6l-1.72-.91-1.72-10.78-2.57-.91L944,331.45l-5.16-2.69-3.44-3.6-.87-3.59,1.73-3.6.86-1.8h2.58m-23.14,8.1h6.29l3.6,2.69,1.79,2.7-.9,3.59L919.3,336l-.91-3.6-.89-2.7-3.6-3.59v-.91l2.7-.89m27,18,.9.89.9,3.6-7.2,1.8-2.69-.91,1.79-2.68,6.3-2.7"/><path id="Hawaii" class="cls-5" d="M1004.72,439.37l-1.79,1.8-3.6-2.7-9-3.59-1.81-2.7-.9-1.8.9-14.39-6.29-15.29-3.6-3.59-2.7-3.6.9-2.71,5.4-5.39,6.29-8.09v-3.59l-4.49-6.3-.91-3.59.91-3.61,1.79-.9,5.4.9,1.8,2.7,8.09,3.6,9.9,1.8,10.79,4.5,7.2,4.49,3.59,4.5.9,7.2,4.5-.9,1.8,2.68v3.61l4.49,3.59,6.3,2.7-1.8,3.6-9.89,9-8.1,4.51-7.19.89-8.09,6.29-4.5,2.69-6.3,11.7"/><path id="Kalawao" class="cls-5" d="M917.5,309l-2.7-.89,6.3.89.89,1.8h-.89l-1.8-.89h-.91l-.89-.91"/><path id="Kauai-2" data-name="Kauai" class="cls-3" d="M770.38,252.8h6l2.59,1.72.85,2.58v1.72l-1.72,4.3v5.16l-3.44,3.44-2.57,1.73-8.61-.87-3.44-3.43-5.16-1.73-1.72-1.72v-2.58l2.58-3.44,8.61-6.88h6M730,280.33l-.86-.87.86-5.16,5.16-3.44.86-2.58h2.58l-.86,6-4.3,1.73-2.58,4.3H730"/><path id="Honolulu-2" data-name="Honolulu" class="cls-6" d="M877.73,302.32l-3.45,2.59v-.86l-5.16,1.72-4.3-2.58-8.6.86-3.45.86-1.72-4.31-2.58-1.72-.86-2.57L845,293.72v-2.58l-2.58-1.71,8.6-1.73,4.31-6,2.58-1.72,2.58.85,4.3,7.74h.86l.86,1.73-.86,1.72.86,2.57,3.44,2.6.86-2.6h1.72v2.6l1.72.86.86,3.44,2.59.85"/><path id="Maui-2" data-name="Maui" class="cls-6" d="M918.33,309.68h.86l1.73.85h.85l-.85-1.71,7.73-1.72,3.44.86-1.72,3.45-5.16,3.43h-2.58l-10.32-1.71-12,.85h-.87L902,307.1h.86l12,.86,2.58.86.85.86m20.64,6,2.59.86,4.3,6.89,8.6-4.3,5.16.86v.86l6.89,4.3,6,1.72.86,1.72V332L970,335.49l-4.31,1.72-8.6,3.45h-6l-1.73-.87-1.71-10.32-2.58-.86-1.72,1.71-5.16-2.57-3.44-3.45-.87-3.43,1.72-3.45.86-1.72H939m-22.36,7.75h6l3.44,2.58,1.72,2.58-.86,3.43-7.74,2.6-.86-3.45-.85-2.58L914,325.17v-.87l2.57-.85m25.81,17.21.86.85.86,3.44-6.89,1.73-2.57-.87,1.71-2.57,6-2.58"/><path id="Hawaii-2" data-name="Hawaii" class="cls-6" d="M1004.7,436.87,1003,438.6,999.54,436l-8.6-3.44L989.2,430l-.85-1.72.85-13.77-6-14.63-3.44-3.43L977.16,393l.86-2.59,5.16-5.16,6-7.74v-3.44l-4.29-6L984,364.6l.87-3.44,1.71-.86,5.17.86,1.72,2.58,7.75,3.45,9.47,1.71,10.32,4.31,6.88,4.3,3.44,4.3.86,6.89,4.3-.87,1.72,2.58v3.45l4.31,3.43,6,2.58-1.72,3.45-9.46,8.6-7.75,4.31-6.88.86-7.75,6-4.29,2.57-6,11.19"/><path id="Kalawao-2" data-name="Kalawao" class="cls-7" d="M917.48,308.82,914.9,308l6,.86.85,1.71h-.85l-1.73-.85h-.86l-.85-.86"/></g></g></svg>