<svg xmlns="http://www.w3.org/2000/svg" viewBox="0 0 2419.85 1442.87"><defs><style>.cls-1{fill:#fff;}.cls-1,.cls-10,.cls-11,.cls-12,.cls-13,.cls-14,.cls-15,.cls-16,.cls-17,.cls-18,.cls-19,.cls-2,.cls-3,.cls-4,.cls-5,.cls-6,.cls-7,.cls-8,.cls-9{stroke:#000;stroke-miterlimit:10;}.cls-2{fill:#1c8e64;}.cls-3{fill:#77bba1;}.cls-4{fill:#bbdccf;}.cls-5{fill:#cb4b1e;}.cls-6{fill:#e1916b;}.cls-7{fill:#efc8b3;}.cls-8{fill:#6159a3;}.cls-9{fill:#9f9bc7;}.cls-10{fill:#cfcde1;}.cls-11{fill:#dfd0b9;}.cls-12{fill:#bfa274;}.cls-13{fill:#946317;}.cls-14{fill:#cbcbcb;}.cls-15{fill:#989898;}.cls-16{fill:#535353;}.cls-17{fill:#df9c09;}.cls-18{fill:#ecc46c;}.cls-19{fill:#f5e1b5;}.cls-20{font-size:128.04px;}.cls-20,.cls-21{font-family:ArialMT, Arial;}.cls-21{font-size:142.26px;}.cls-22{fill:#e4211d;}.cls-23{fill:#ef7d87;}.cls-24{fill:#f7c1c5;}.cls-25{fill:#ff7f00;}.cls-26{fill:#feb57d;}.cls-27{fill:#ffdac1;}.cls-28{fill:#6e6e6e;}.cls-29{fill:#acacac;}.cls-30{fill:#d6d6d6;}.cls-31{fill:#cee7ce;}.cls-32{fill:#9cd09a;}.cls-33{fill:#4caf4a;}.cls-34{fill:#cadaeb;}.cls-35{fill:#92b4d6;}.cls-36{fill:#387db8;}.cls-37{fill:#984ea3;}.cls-38{fill:#c39bc9;}.cls-39{fill:#e1cee5;}</style></defs><title>Asset 3</title><g id="Layer_2" data-name="Layer 2"><g id="Layer_0_Image" data-name="Layer 0 Image"><rect class="cls-1" x="0.5" y="0.5" width="2418.85" height="1441.87"/><rect class="cls-2" x="701.58" y="186.46" width="256.07" height="256.07"/><rect class="cls-3" x="701.58" y="442.53" width="256.07" height="256.07"/><rect class="cls-4" x="701.58" y="698.61" width="256.07" height="256.07"/><rect class="cls-5" x="957.66" y="186.46" width="256.07" height="256.07"/><rect class="cls-6" x="957.66" y="442.53" width="256.07" height="256.07"/><rect class="cls-7" x="957.66" y="698.61" width="256.07" height="256.07"/><rect class="cls-8" x="1213.73" y="186.46" width="256.07" height="256.07"/><rect class="cls-9" x="1213.73" y="442.53" width="256.07" height="256.07"/><rect class="cls-10" x="1213.73" y="698.61" width="256.07" height="256.07"/><rect class="cls-11" x="1464.47" y="698.61" width="256.07" height="256.07"/><rect class="cls-12" x="1464.47" y="442.53" width="256.07" height="256.07"/><rect class="cls-13" x="1464.47" y="186.46" width="256.07" height="256.07"/><rect class="cls-14" x="1722.94" y="698.61" width="256.07" height="256.07"/><rect class="cls-15" x="1722.94" y="442.53" width="256.07" height="256.07"/><rect class="cls-16" x="1722.94" y="186.46" width="256.07" height="256.07"/><rect class="cls-17" x="1979.01" y="186.46" width="256.07" height="256.07"/><rect class="cls-18" x="1979.01" y="442.53" width="256.07" height="256.07"/><rect class="cls-19" x="1979.01" y="698.61" width="256.07" height="256.07"/><text class="cls-20" transform="translate(792.4 1109.81)">1</text><text class="cls-20" transform="translate(410.58 870.89)">rural</text><text class="cls-20" transform="translate(358.61 607.64)">micro</text><text class="cls-20" transform="translate(358.61 347.81)">metro</text><text class="cls-20" transform="translate(1039.8 1109.81)">2</text><text class="cls-21" transform="translate(1264.1 1334.09)">cluster</text><text class="cls-21" transform="translate(245.72 920.28) rotate(-90)">population</text><text class="cls-20" transform="translate(1300.28 1109.81)">3</text><text class="cls-20" transform="translate(1549.07 1104.29)">4</text><text class="cls-20" transform="translate(1806.45 1109.81)">5</text><text class="cls-20" transform="translate(2067.64 1109.81)">6</text><rect class="cls-22" x="702.16" y="186.46" width="256.07" height="256.07"/><rect class="cls-23" x="702.16" y="442.53" width="256.07" height="256.07"/><rect class="cls-24" x="702.16" y="698.61" width="256.07" height="256.07"/><rect class="cls-25" x="958.24" y="186.46" width="256.07" height="256.07"/><rect class="cls-26" x="958.24" y="442.53" width="256.07" height="256.07"/><rect class="cls-27" x="958.24" y="698.61" width="256.07" height="256.07"/><rect class="cls-28" x="1214.31" y="186.46" width="256.07" height="256.07"/><rect class="cls-29" x="1214.31" y="442.53" width="256.07" height="256.07"/><rect class="cls-30" x="1214.31" y="698.61" width="256.07" height="256.07"/><rect class="cls-31" x="1465.04" y="698.61" width="256.07" height="256.07"/><rect class="cls-32" x="1465.04" y="442.53" width="256.07" height="256.07"/><rect class="cls-33" x="1465.04" y="186.46" width="256.07" height="256.07"/><rect class="cls-34" x="1721.74" y="698.61" width="256.07" height="256.07"/><rect class="cls-35" x="1721.74" y="442.53" width="256.07" height="256.07"/><rect class="cls-36" x="1721.74" y="186.46" width="256.07" height="256.07"/><rect class="cls-37" x="1977.81" y="186.46" width="256.07" height="256.07"/><rect class="cls-38" x="1977.81" y="442.53" width="256.07" height="256.07"/><rect class="cls-39" x="1977.81" y="698.61" width="256.07" height="256.07"/></g></g></svg>